<mxfile host="app.diagrams.net" modified="2020-09-01T06:44:30.923Z" agent="5.0 (Macintosh; Intel Mac OS X 10_14_6) AppleWebKit/537.36 (KHTML, like Gecko) Chrome/85.0.4183.83 Safari/537.36" etag="WPSgyqkQkTjNMLKvVIP5" version="13.6.5" type="github">
  <diagram id="prtHgNgQTEPvFCAcTncT" name="Page-1">
    <mxGraphModel dx="1630" dy="1082" grid="1" gridSize="10" guides="1" tooltips="1" connect="1" arrows="1" fold="1" page="1" pageScale="1" pageWidth="827" pageHeight="1169" math="0" shadow="0">
      <root>
        <mxCell id="0" />
        <mxCell id="1" parent="0" />
        <mxCell id="0dNkAYRWwbL5-neP0y7Q-1" value="&lt;b style=&quot;font-size: 18px&quot;&gt;&amp;nbsp; common-components&lt;br&gt;&lt;br&gt;&lt;br&gt;&lt;br&gt;&lt;br&gt;&lt;br&gt;&lt;br&gt;&lt;br&gt;&lt;br&gt;&lt;br&gt;&lt;br&gt;&lt;br&gt;&lt;br&gt;&lt;br&gt;&lt;br&gt;&lt;br&gt;&lt;br&gt;&lt;br&gt;&lt;br&gt;&lt;br&gt;&lt;br&gt;&lt;br&gt;&lt;br&gt;&lt;br&gt;&lt;br&gt;&lt;br&gt;&lt;br&gt;&lt;br&gt;&lt;br&gt;&lt;br&gt;&lt;br&gt;&lt;/b&gt;" style="rounded=0;whiteSpace=wrap;html=1;align=left;" parent="1" vertex="1">
          <mxGeometry x="460" y="270" width="430" height="735" as="geometry" />
        </mxCell>
        <mxCell id="0dNkAYRWwbL5-neP0y7Q-2" style="rounded=0;orthogonalLoop=1;jettySize=auto;html=1;exitX=0;exitY=1;exitDx=0;exitDy=0;entryX=0.5;entryY=0;entryDx=0;entryDy=0;" parent="1" source="0dNkAYRWwbL5-neP0y7Q-3" target="0dNkAYRWwbL5-neP0y7Q-11" edge="1">
          <mxGeometry relative="1" as="geometry" />
        </mxCell>
        <mxCell id="0dNkAYRWwbL5-neP0y7Q-3" value="&lt;font style=&quot;font-size: 18px&quot;&gt;&lt;span&gt;provider&lt;/span&gt;&lt;br&gt;&lt;span&gt;consumer&lt;br&gt;&lt;/span&gt;颜色key-value&lt;/font&gt;&lt;span&gt;&lt;br&gt;&lt;/span&gt;" style="rounded=0;whiteSpace=wrap;html=1;" parent="1" vertex="1">
          <mxGeometry x="720" y="370" width="130" height="70" as="geometry" />
        </mxCell>
        <mxCell id="0dNkAYRWwbL5-neP0y7Q-4" value="&lt;font style=&quot;font-size: 24px&quot;&gt;&lt;b&gt;&amp;nbsp; crm-rn&lt;br&gt;&lt;br&gt;&lt;br&gt;&lt;br&gt;&lt;br&gt;&lt;br&gt;&lt;br&gt;&lt;br&gt;&lt;br&gt;&lt;br&gt;&lt;br&gt;&lt;br&gt;&lt;br&gt;&lt;br&gt;&lt;br&gt;&lt;br&gt;&lt;br&gt;&lt;br&gt;&lt;br&gt;&lt;br&gt;&lt;br&gt;&lt;/b&gt;&lt;/font&gt;" style="rounded=0;whiteSpace=wrap;html=1;align=left;" parent="1" vertex="1">
          <mxGeometry x="110" y="297.5" width="190" height="702.5" as="geometry" />
        </mxCell>
        <mxCell id="0dNkAYRWwbL5-neP0y7Q-5" value="&lt;font style=&quot;font-size: 18px&quot;&gt;组件&lt;/font&gt;" style="rounded=0;whiteSpace=wrap;html=1;" parent="1" vertex="1">
          <mxGeometry x="712.5" y="790" width="145" height="200" as="geometry" />
        </mxCell>
        <mxCell id="0dNkAYRWwbL5-neP0y7Q-6" value="" style="endArrow=open;html=1;exitX=0;exitY=0.5;exitDx=0;exitDy=0;startArrow=none;startFill=0;endFill=0;entryX=0.997;entryY=0.307;entryDx=0;entryDy=0;entryPerimeter=0;" parent="1" source="0dNkAYRWwbL5-neP0y7Q-3" target="0dNkAYRWwbL5-neP0y7Q-8" edge="1">
          <mxGeometry width="50" height="50" relative="1" as="geometry">
            <mxPoint x="550" y="370" as="sourcePoint" />
            <mxPoint x="300" y="410" as="targetPoint" />
          </mxGeometry>
        </mxCell>
        <mxCell id="0dNkAYRWwbL5-neP0y7Q-7" value="" style="endArrow=classic;html=1;entryX=0.5;entryY=0;entryDx=0;entryDy=0;exitX=0.5;exitY=1;exitDx=0;exitDy=0;" parent="1" source="0dNkAYRWwbL5-neP0y7Q-3" target="0dNkAYRWwbL5-neP0y7Q-5" edge="1">
          <mxGeometry width="50" height="50" relative="1" as="geometry">
            <mxPoint x="390" y="440" as="sourcePoint" />
            <mxPoint x="440" y="390" as="targetPoint" />
          </mxGeometry>
        </mxCell>
        <mxCell id="0dNkAYRWwbL5-neP0y7Q-8" value="&lt;font style=&quot;font-size: 18px&quot;&gt;&lt;span&gt;consumer&lt;/span&gt;&lt;br&gt;&lt;span&gt;取theme相关数值&lt;/span&gt;&lt;/font&gt;" style="rounded=0;whiteSpace=wrap;html=1;" parent="1" vertex="1">
          <mxGeometry x="160" y="400" width="120" height="240" as="geometry" />
        </mxCell>
        <mxCell id="0dNkAYRWwbL5-neP0y7Q-9" style="edgeStyle=orthogonalEdgeStyle;rounded=0;orthogonalLoop=1;jettySize=auto;html=1;exitX=0;exitY=0.5;exitDx=0;exitDy=0;" parent="1" source="0dNkAYRWwbL5-neP0y7Q-11" target="0dNkAYRWwbL5-neP0y7Q-4" edge="1">
          <mxGeometry relative="1" as="geometry" />
        </mxCell>
        <mxCell id="0dNkAYRWwbL5-neP0y7Q-10" style="rounded=0;orthogonalLoop=1;jettySize=auto;html=1;exitX=1;exitY=1;exitDx=0;exitDy=0;entryX=0;entryY=0;entryDx=0;entryDy=0;" parent="1" source="0dNkAYRWwbL5-neP0y7Q-11" target="0dNkAYRWwbL5-neP0y7Q-5" edge="1">
          <mxGeometry relative="1" as="geometry" />
        </mxCell>
        <mxCell id="0dNkAYRWwbL5-neP0y7Q-11" value="&lt;font style=&quot;font-size: 18px&quot;&gt;基础RN组件&lt;/font&gt;" style="rounded=0;whiteSpace=wrap;html=1;fillColor=none;gradientColor=none;" parent="1" vertex="1">
          <mxGeometry x="490" y="598.75" width="195" height="100" as="geometry" />
        </mxCell>
        <mxCell id="0dNkAYRWwbL5-neP0y7Q-12" value="" style="endArrow=classic;html=1;exitX=0;exitY=0.5;exitDx=0;exitDy=0;entryX=1.008;entryY=0.869;entryDx=0;entryDy=0;entryPerimeter=0;" parent="1" source="0dNkAYRWwbL5-neP0y7Q-5" target="0dNkAYRWwbL5-neP0y7Q-4" edge="1">
          <mxGeometry width="50" height="50" relative="1" as="geometry">
            <mxPoint x="600" y="650" as="sourcePoint" />
            <mxPoint x="650" y="600" as="targetPoint" />
          </mxGeometry>
        </mxCell>
        <mxCell id="0dNkAYRWwbL5-neP0y7Q-13" value="&lt;font style=&quot;font-size: 36px&quot;&gt;APP state + Provider, 传递 changeTheme的方法&lt;/font&gt;" style="text;html=1;strokeColor=none;fillColor=none;align=center;verticalAlign=middle;whiteSpace=wrap;rounded=0;" parent="1" vertex="1">
          <mxGeometry x="140" y="1050" width="870" height="20" as="geometry" />
        </mxCell>
      </root>
    </mxGraphModel>
  </diagram>
</mxfile>
